TITLE ""
FILE "DISC1Track18.mp3" MP3
  TRACK 01 AUDIO
    TITLE "DISC1Track18_01"
    INDEX 01 00:00:00
  TRACK 02 AUDIO
    TITLE "DISC1Track18_02"
    INDEX 01 00:01:27
  TRACK 03 AUDIO
    TITLE "DISC1Track18_03"
    INDEX 01 00:01:37
  TRACK 04 AUDIO
    TITLE "DISC1Track18_04"
    INDEX 01 00:04:65
  TRACK 05 AUDIO
    TITLE "DISC1Track18_05"
    INDEX 01 00:08:10
  TRACK 06 AUDIO
    TITLE "DISC1Track18_06"
    INDEX 01 00:11:02
  TRACK 07 AUDIO
    TITLE "DISC1Track18_07"
    INDEX 01 00:11:12
  TRACK 08 AUDIO
    TITLE "DISC1Track18_08"
    INDEX 01 00:14:14
  TRACK 09 AUDIO
    TITLE "DISC1Track18_09"
    INDEX 01 00:16:72
  TRACK 10 AUDIO
    TITLE "DISC1Track18_10"
    INDEX 01 00:19:31
  TRACK 11 AUDIO
    TITLE "DISC1Track18_11"
    INDEX 01 00:19:41
  TRACK 12 AUDIO
    TITLE "DISC1Track18_12"
    INDEX 01 00:24:21
  TRACK 13 AUDIO
    TITLE "DISC1Track18_13"
    INDEX 01 00:29:04
  TRACK 14 AUDIO
    TITLE "DISC1Track18_14"
    INDEX 01 00:33:25
  TRACK 15 AUDIO
    TITLE "DISC1Track18_15"
    INDEX 01 00:33:41
  TRACK 16 AUDIO
    TITLE "DISC1Track18_16"
    INDEX 01 00:36:30
  TRACK 17 AUDIO
    TITLE "DISC1Track18_17"
    INDEX 01 00:39:48
  TRACK 18 AUDIO
    TITLE "DISC1Track18_18"
    INDEX 01 00:42:44
  TRACK 19 AUDIO
    TITLE "DISC1Track18_19"
    INDEX 01 00:42:52
  TRACK 20 AUDIO
    TITLE "DISC1Track18_20"
    INDEX 01 00:45:40
  TRACK 21 AUDIO
    TITLE "DISC1Track18_21"
    INDEX 01 00:48:56
  TRACK 22 AUDIO
    TITLE "DISC1Track18_22"
    INDEX 01 00:51:47
  TRACK 23 AUDIO
    TITLE "DISC1Track18_23"
    INDEX 01 00:51:57
  TRACK 24 AUDIO
    TITLE "DISC1Track18_24"
    INDEX 01 00:56:32
  TRACK 25 AUDIO
    TITLE "DISC1Track18_25"
    INDEX 01 01:01:08
  TRACK 26 AUDIO
    TITLE "DISC1Track18_26"
    INDEX 01 01:05:39
  TRACK 27 AUDIO
    TITLE "DISC1Track18_27"
    INDEX 01 01:05:57
  TRACK 28 AUDIO
    TITLE "DISC1Track18_28"
    INDEX 01 01:10:03
  TRACK 29 AUDIO
    TITLE "DISC1Track18_29"
    INDEX 01 01:14:01
  TRACK 30 AUDIO
    TITLE "DISC1Track18_30"
    INDEX 01 01:17:54
  TRACK 31 AUDIO
    TITLE "DISC1Track18_31"
    INDEX 01 01:17:64
  TRACK 32 AUDIO
    TITLE "DISC1Track18_32"
    INDEX 01 01:21:11
  TRACK 33 AUDIO
    TITLE "DISC1Track18_33"
    INDEX 01 01:24:68
  TRACK 34 AUDIO
    TITLE "DISC1Track18_34"
    INDEX 01 01:28:21
  TRACK 35 AUDIO
    TITLE "DISC1Track18_35"
    INDEX 01 01:28:36
  TRACK 36 AUDIO
    TITLE "DISC1Track18_36"
    INDEX 01 01:31:58
  TRACK 37 AUDIO
    TITLE "DISC1Track18_37"
    INDEX 01 01:35:36
  TRACK 38 AUDIO
    TITLE "DISC1Track18_38"
    INDEX 01 01:38:54
  TRACK 39 AUDIO
    TITLE "DISC1Track18_39"
    INDEX 01 01:38:72
  TRACK 40 AUDIO
    TITLE "DISC1Track18_40"
    INDEX 01 01:41:37
  TRACK 41 AUDIO
    TITLE "DISC1Track18_41"
    INDEX 01 01:44:14
  TRACK 42 AUDIO
    TITLE "DISC1Track18_42"
    INDEX 01 01:46:48
  TRACK 43 AUDIO
    TITLE "DISC1Track18_43"
    INDEX 01 01:46:62
  TRACK 44 AUDIO
    TITLE "DISC1Track18_44"
    INDEX 01 01:48:25
  TRACK 45 AUDIO
    TITLE "DISC1Track18_45"
    INDEX 01 01:50:42
  TRACK 46 AUDIO
    TITLE "DISC1Track18_46"
    INDEX 01 01:52:31
